<svg width="40" height="40" viewBox="0 0 40 40" fill="none" xmlns="http://www.w3.org/2000/svg">
<path opacity="0.4" d="M36.6667 13.0166V25.2666C36.1833 25.0333 35.65 24.8666 35.05 24.7666L34.5333 24.6833L34.1 23.7833C33.1833 21.9166 31.6833 20.8333 30 20.8333C28.3167 20.8333 26.8167 21.9166 25.9 23.7833L25.45 24.6833L24.95 24.7666C22.9667 25.1 21.5333 26.2 21.0167 27.7666C20.5167 29.35 21.0333 31.0833 22.45 32.5166L22.9667 33.0333L22.9167 33.2333C22.5833 34.7166 22.7167 35.85 23.0334 36.6666H13.0167C6.95001 36.6666 3.33334 33.05 3.33334 26.9833V13.0166C3.33334 6.94998 6.95001 3.33331 13.0167 3.33331H26.9833C33.05 3.33331 36.6667 6.94998 36.6667 13.0166Z" fill="#FB3F6C"/>
<path d="M31.8667 24.9L32.4 25.9834C32.6667 26.5167 33.35 27.0167 33.9167 27.1167L34.6333 27.2334C36.8167 27.6 37.3167 29.2 35.7667 30.7667L35.1 31.4334C34.65 31.8834 34.4167 32.75 34.55 33.3834L34.6333 33.7834C35.2333 36.4167 33.8333 37.4334 31.55 36.05L31.0667 35.75C30.4834 35.4 29.5166 35.4 28.9333 35.75L28.45 36.05C26.15 37.4334 24.7667 36.4167 25.3667 33.7834L25.45 33.3834C25.5833 32.7667 25.35 31.8834 24.9 31.4334L24.2334 30.7667C22.6834 29.1834 23.1833 27.6 25.3667 27.2334L26.0833 27.1167C26.6667 27.0167 27.3333 26.5167 27.6 25.9834L28.1333 24.9C29.1667 22.8167 30.8333 22.8167 31.8667 24.9Z" fill="#FB3F6C"/>
<path fill-rule="evenodd" clip-rule="evenodd" d="M26.8825 13.1954C27.4281 13.6184 27.5276 14.4035 27.1046 14.9492L23.2472 19.9254C22.2558 21.1793 20.4277 21.4079 19.1524 20.4225L19.1437 20.4157L16.0994 18.0202C15.9113 17.8773 15.649 17.9129 15.5062 18.0971C15.506 18.0973 15.5063 18.097 15.5062 18.0971L11.5403 23.2461C11.119 23.793 10.3342 23.8949 9.78723 23.4737C9.2403 23.0524 9.13843 22.2675 9.55969 21.7206L13.5276 16.569C14.5174 15.2881 16.3528 15.0565 17.631 16.0442L17.6397 16.051L20.684 18.4465C20.874 18.5909 21.1418 18.5537 21.2836 18.3779L25.1288 13.4175C25.5517 12.8719 26.3369 12.7725 26.8825 13.1954Z" fill="#FB3F6C"/>
</svg>
