<svg xmlns="http://www.w3.org/2000/svg" width="98" height="39" fill="none" viewBox="0 0 98 39"><path fill="#F2A100" d="M94 13C90.15 12.65 87.1 12.95 84.85 13.95C81.45 15.4 78.2 18.3 71.15 24.75C64.1 31.25 51.05 38.5 38.1 38.5C29.45 38.5 22.25 37.95 16.5 36.9C19.8 37.45 24.65 37.45 31.05 36.9C40.65 36.05 51.55 31.2 55.9 28.2C60.25 25.2 65.1 21.5 68 19C70.9 16.5 77.4 11.8 82.8 11.15C86.35 10.7 90.1 11.3 94 13Z"/><path fill="#AE1F33" d="M0 33.4C5.15 35.75 10.8 36.5 17.05 35.75C26.4 34.6 38.2 30.9 46.9 24.4C55.6 17.9 64.1 9 72.05 7.15C80 5.3 89.2 7.65 94.1 11.55C99 15.5 98.9 14.85 95.5 11.55C92.1 8.25 82.5 0 72.1 0C61.7 0 54.4 3.15 48 4.05C41.6 4.95 25.6 4.25 20.5 2.5C15.4 0.75 11.85 3.5 10.1 5.3C8.35 7.1 4 8.8 2.5 8.8C1 8.8 2.3 10.55 6.8 10.55H42.6C43.55 10.55 29.4 23.65 20.5 29.15C14.55 32.8 7.75 34.25 0 33.4Z"/></svg>